{
  "accessors": [
    {
      "bufferView": 0,
      "componentType": 5126,
      "count": 5498,
      "max": [
        0.921129047870636,
        0.9999994039535522,
        0.5059638619422913
      ],
      "min": [
        -0.9211300015449524,
        -1.0,
        -0.5059630274772644
      ],
      "type": "VEC3"
    },
    {
      "bufferView": 1,
      "componentType": 5125,
      "count": 10137,
      "type": "SCALAR"
    },
    {
      "bufferView": 2,
      "componentType": 5126,
      "count": 5498,
      "type": "VEC3"
    },
    {
      "bufferView": 3,
      "componentType": 5126,
      "count": 5498,
      "type": "VEC4"
    },
    {
      "bufferView": 4,
      "componentType": 5126,
      "count": 5498,
      "type": "VEC2"
    }
  ],
  "asset": {
    "version": "2.0"
  },
  "bufferViews": [
    {
      "buffer": 0,
      "byteLength": 65976,
      "target": 34962
    },
    {
      "buffer": 1,
      "byteLength": 40548,
      "target": 34963
    },
    {
      "buffer": 2,
      "byteLength": 65976,
      "target": 34962
    },
    {
      "buffer": 3,
      "byteLength": 87968,
      "target": 34962
    },
    {
      "buffer": 4,
      "byteLength": 43984,
      "target": 34962
    }
  ],
  "buffers": [
    {
      "byteLength": 65976,
      "uri": "data:application/octet-stream;base64,"
    },
    {
      "byteLength": 40548,
      "uri": "data:application/octet-stream;base64,"
    },
    {
      "byteLength": 65976,
      "uri": "data:application/octet-stream;base64,"
    },
    {
      "byteLength": 87968,
      "uri": "data:application/octet-stream;base64,"
    },
    {
      "byteLength": 43984,
      "uri": "data:application/octet-stream;base64,"
    }
  ],
  "extensionsUsed": [
    "KHR_materials_specular"
  ],
  "images": [
    {
      "uri": "textures/T_DefaultMaterial_AO.png"
    },
    {
      "uri": "textures/T_DefaultMaterial_BaseColor.png"
    },
    {
      "uri": "textures/T_DefaultMaterial_Roughness.png"
    },
    {
      "uri": "textures/T_DefaultMaterial_Metallic.png"
    },
    {
      "uri": "textures/T_DefaultMaterial_Normal.png"
    },
    {
      "uri": "textures/DefaultMaterial_AO_0.png"
    }
  ],
  "materials": [
    {
      "doubleSided": true,
      "extensions": {
        "KHR_materials_specular": {}
      },
      "name": "DefaultMaterial",
      "normalTexture": {
        "index": 4
      },
      "occlusionTexture": {
        "index": 0
      },
      "pbrMetallicRoughness": {
        "baseColorFactor": [
          0.800000011920929,
          0.800000011920929,
          0.800000011920929,
          1.0
        ],
        "baseColorTexture": {
          "index": 1
        },
        "metallicRoughnessTexture": {
          "index": 3
        }
      }
    }
  ],
  "meshes": [
    {
      "name": "defaultMaterial",
      "primitives": [
        {
          "attributes": {
            "NORMAL": 2,
            "POSITION": 0,
            "TANGENT": 3,
            "TEXCOORD_0": 4
          },
          "indices": 1,
          "material": 0,
          "mode": 5
        }
      ]
    }
  ],
  "nodes": [
    {
      "mesh": 0,
      "name": "defaultMaterial"
    },
    {
      "children": [
        0
      ],
      "name": "Cylinder.002"
    },
    {
      "children": [
        1
      ],
      "name": "Water's pipe",
      "rotation": [
        2.1855700111022284e-08,
        0.0,
        0.0,
        0.9999999999999998
      ],
      "scale": [
        1.0,
        1.0,
        1.0
      ],
      "translation": [
        0.0,
        0.0,
        0.0
      ]
    }
  ],
  "samplers": [
    {
      "magFilter": 9729,
      "minFilter": 9729,
      "wrapS": 10497,
      "wrapT": 10497
    },
    {
      "magFilter": 9729,
      "minFilter": 9729,
      "wrapS": 10497,
      "wrapT": 10497
    },
    {
      "magFilter": 9729,
      "minFilter": 9729,
      "wrapS": 10497,
      "wrapT": 10497
    },
    {
      "magFilter": 9729,
      "minFilter": 9729,
      "wrapS": 10497,
      "wrapT": 10497
    },
    {
      "magFilter": 9729,
      "minFilter": 9729,
      "wrapS": 10497,
      "wrapT": 10497
    },
    {
      "magFilter": 9729,
      "minFilter": 9729,
      "wrapS": 10497,
      "wrapT": 10497
    }
  ],
  "scene": 0,
  "scenes": [
    {
      "nodes": [
        2
      ]
    }
  ],
  "textures": [
    {
      "sampler": 0,
      "source": 0
    },
    {
      "sampler": 1,
      "source": 1
    },
    {
      "sampler": 2,
      "source": 2
    },
    {
      "sampler": 3,
      "source": 3
    },
    {
      "sampler": 4,
      "source": 4
    },
    {
      "sampler": 5,
      "source": 5
    }
  ]
}
